<?xml version="1.0" encoding="UTF-8"?>
<svg id="Calque_2" data-name="Calque 2" xmlns="http://www.w3.org/2000/svg" viewBox="0 0 737.59 206.78">
  <defs>
    <style>
      .cls-1 {
        fill: #6464f5;
      }

      .cls-2 {
        fill: #565ef5;
      }

      .cls-3 {
        fill: #00074d;
        font-family: SequenzTrial-ExtraBold, SequenzTrial;
        font-size: 150px;
      }
    </style>
  </defs>
  <g id="Calque_1-2" data-name="Calque 1">
    <g>
      <g>
        <path class="cls-1" d="M67.21,70.71c.67,.04,1.38-.06,2,.14,7.79,2.54,15.55,5.14,23.33,7.7,11.88,3.91,23.76,7.81,35.63,11.72,2.13,.7,4.24,1.45,6.38,2.09,1.02,.31,1.35,.87,1.34,1.9-.04,3.99,0,7.98-.02,11.96,0,1.43-.05,1.47-1.53,1.29-9.21-1.14-18.42-2.3-27.63-3.46-7.48-.94-14.95-1.87-22.43-2.81-4.82-.6-9.64-1.25-14.47-1.75-1.61-.17-3.25,.05-4.88,.09,.47-.11,.93-.26,1.41-.34,1.52-.25,1.57-.29,1.59-1.89,.01-.93,0-1.86,0-2.79,0-7.37,0-14.75-.03-22.12,0-.64,.32-1.49-.71-1.75Z"/>
        <path class="cls-2" d="M67.21,70.71c1.03,.26,.71,1.11,.71,1.75,.02,7.37,.02,14.75,.03,22.12,0,.93,0,1.86,0,2.79-.03,1.6-.07,1.64-1.59,1.89-.48,.08-.94,.22-1.41,.34-8.77,1.1-17.55,2.19-26.32,3.29-6.34,.8-12.67,1.61-19.01,2.41-6.12,.77-12.24,1.52-18.36,2.32-.87,.11-1.19-.13-1.19-1.01,.02-4.26,.03-8.52-.01-12.78-.01-.96,.55-1.17,1.25-1.4,5.18-1.7,10.36-3.42,15.54-5.13,15.81-5.21,31.61-10.42,47.42-15.63,.98-.32,1.95-.64,2.93-.96Z"/>
        <path class="cls-1" d="M66.25,106.49c.58-.08,1.17-.29,1.74-.24,7.78,.73,15.55,1.49,23.32,2.24,7.39,.72,14.79,1.44,22.18,2.14,6.25,.59,12.52,1.12,18.76,1.76,4.4,.45,3.53-.1,3.6,3.79,.06,3.01,.02,6.01,0,9.02,0,1.56-.06,1.64-1.63,1.84-5.53,.7-11.06,1.36-16.59,2.03-7.7,.94-15.4,1.88-23.1,2.81-7.86,.95-15.73,1.89-23.59,2.83-1.03,.12-2.06,.19-3.09,.28,.02-.22,.06-.43,.06-.65,0-8.78,.02-17.55,0-26.33,0-1.3-.04-1.3-1.68-1.52Z"/>
        <path class="cls-2" d="M66.25,106.49c1.64,.22,1.68,.22,1.68,1.52,0,8.78,0,17.55,0,26.33,0,.22-.04,.43-.06,.65-2.74-.28-5.48-.55-8.21-.85-2.04-.22-4.07-.47-6.1-.73-4.05-.51-8.1-1.05-12.15-1.55-11.01-1.35-22.02-2.68-33.03-4.02-2.33-.28-4.66-.62-7-.82-1.1-.1-1.33-.62-1.32-1.59,.04-3.77,.04-7.54,0-11.31,0-1,.29-1.46,1.36-1.55,3.92-.32,7.83-.72,11.75-1.09,10.01-.94,20.02-1.9,30.03-2.82,3.64-.33,7.29-.57,10.94-.88,3.79-.32,7.58-.65,11.36-1,.26-.02,.5-.19,.75-.29Z"/>
        <path class="cls-1" d="M67.59,.25c.67-.64,.97,.11,1.32,.4,3.31,2.68,6.6,5.39,9.89,8.08,10.65,8.71,21.3,17.42,31.95,26.14,7.98,6.54,15.95,13.1,23.94,19.63,.83,.68,1.23,1.4,1.21,2.5-.06,3.49-.01,6.99-.03,10.49,0,1.54-.13,1.61-1.41,.86-4.98-2.95-9.94-5.92-14.91-8.89-7.13-4.25-14.26-8.5-21.38-12.75-9.23-5.51-18.46-11.04-27.7-16.55-.84-.5-1.72-.94-2.58-1.4,.01-9.1,.03-18.19,.03-27.29,0-.41-.22-.81-.33-1.22Z"/>
        <path class="cls-1" d="M67.85,178.04c4.48-1.73,8.97-3.44,13.44-5.19,10.12-3.96,20.23-7.95,30.34-11.93,7.57-2.98,15.14-5.97,22.7-8.97,1.38-.55,1.52-.49,1.53,.96,.02,3.61-.02,7.21,.03,10.82,.02,1.1-.53,1.68-1.38,2.2-6.34,3.87-12.66,7.76-18.98,11.65-8.04,4.95-16.08,9.92-24.12,14.88-7.34,4.53-14.68,9.08-22.04,13.57-.52,.32-1.02,1.12-1.85,.53,.14-.67,.39-1.34,.39-2.01,.03-7.37,.02-14.74,.02-22.1,0-1.47-.06-2.94-.09-4.42Z"/>
        <path class="cls-1" d="M67.89,142.24c9.88-1.52,19.75-3.04,29.63-4.56,12.04-1.85,24.07-3.69,36.11-5.54,.32-.05,.65-.06,.98-.12,.96-.15,1.43,.2,1.41,1.23-.06,3.71-.11,7.43-.13,11.14,0,.86-.41,1.23-1.17,1.52-7.88,2.94-15.75,5.9-23.62,8.87-9.92,3.73-19.83,7.47-29.74,11.2-4.29,1.61-8.59,3.21-12.9,4.8-.27,.1-.61,.03-.91,.04,.14-.46,.39-.91,.39-1.37,0-9.07-.02-18.14-.03-27.21Z"/>
        <path class="cls-2" d="M67.89,142.24c.02,9.07,.04,18.14,.03,27.21,0,.46-.26,.91-.39,1.37-1.66-.63-3.32-1.27-4.99-1.9-20.25-7.61-40.5-15.21-60.74-22.82-1.86-.7-1.72-.35-1.73-2.39-.01-3.39-.01-6.78,0-10.17,0-1.71,.02-1.73,1.77-1.47,4.43,.67,8.85,1.37,13.28,2.05,13.55,2.06,27.11,4.11,40.66,6.19,3.66,.56,7.3,1.26,10.96,1.88,.37,.06,.76,.04,1.14,.06Z"/>
        <path class="cls-2" d="M67.59,.25c.12,.41,.33,.81,.33,1.22,0,9.1-.01,18.19-.03,27.29-18.89,11.27-37.79,22.54-56.68,33.81-3.28,1.96-6.56,3.92-9.85,5.86-1.2,.7-1.27,.66-1.28-.65-.02-3.71,.03-7.43-.03-11.14-.02-.98,.5-1.48,1.15-2.01,7.52-6.15,15.05-12.3,22.56-18.46C37.26,25.08,50.77,14,64.27,2.93c1.1-.9,2.21-1.78,3.31-2.68Z"/>
        <path class="cls-2" d="M67.85,178.04c.03,1.47,.09,2.94,.09,4.42,0,7.37,.01,14.74-.02,22.1,0,.67-.26,1.34-.39,2.01-12.32-7.59-24.64-15.18-36.96-22.77-9.62-5.93-19.24-11.87-28.89-17.76-1.16-.71-1.68-1.47-1.64-2.86,.09-3.44,.02-6.88,.03-10.32,0-1.47,.04-1.48,1.33-.97,16.46,6.48,32.92,12.96,49.38,19.45,5.69,2.24,11.38,4.48,17.07,6.71Z"/>
        <path class="cls-1" d="M67.59,36c.43,.1,.92,.1,1.29,.31,5.63,3.14,11.24,6.31,16.86,9.48,8.99,5.08,17.98,10.16,26.96,15.25,7.37,4.17,14.73,8.36,22.11,12.51,.77,.43,1.08,.96,1.07,1.83-.01,3.77,.03,7.54,.03,11.31,0,.99-.15,1.08-1.41,.63-3.86-1.37-7.71-2.78-11.57-4.17-8.27-2.99-16.54-5.98-24.82-8.97-9.25-3.34-18.49-6.69-27.75-10.01-.91-.33-1.89-.45-2.84-.67,.13-.63,.38-1.25,.38-1.88,.03-7.97,.02-15.93,0-23.9,0-.57-.22-1.14-.34-1.71Z"/>
        <path class="cls-2" d="M67.59,36c.12,.57,.33,1.14,.34,1.71,.02,7.97,.02,15.93,0,23.9,0,.63-.25,1.25-.38,1.88-11.97,4.31-23.93,8.62-35.9,12.94-9.76,3.52-19.51,7.05-29.26,10.58-.36,.13-.72,.26-1.08,.38-1.15,.36-1.21,.34-1.22-.89-.03-3.06,.15-6.13-.06-9.17-.16-2.3,.58-3.53,2.66-4.69,18.64-10.41,37.2-20.96,55.79-31.47,3.04-1.72,6.09-3.44,9.13-5.16Z"/>
      </g>
      <text class="cls-3" transform="translate(141.05 160.39)"><tspan x="0" y="0">BERLIER</tspan></text>
    </g>
  </g>
</svg>